<svg width="30" height="28" viewBox="0 0 30 28" fill="none" xmlns="http://www.w3.org/2000/svg">
<g id="Group-chat">
<path id="Combined Shape" fill-rule="evenodd" clip-rule="evenodd" d="M27.7716 20.8455C28.1568 21.1986 28.7777 20.924 28.7757 20.4015L28.7548 15.0164V6.33224C28.7548 4.73352 27.3409 3.4375 25.5969 3.4375H10.86C9.11599 3.4375 7.70215 4.73352 7.70215 6.33224V10.3125H16.4047C18.3903 10.3125 20 11.9221 20 13.9077V17.9112H24.5705L27.7716 20.8455Z" fill="white"/>
<path id="Combined Shape_2" opacity="0.3" fill-rule="evenodd" clip-rule="evenodd" d="M2.48145 20.625V14.8959C2.48145 13.6302 3.60073 12.6042 4.98145 12.6042H14.9814C16.3622 12.6042 17.4814 13.6302 17.4814 14.8959V20.625C17.4814 21.8907 16.3622 22.9167 14.9814 22.9167H5.12611L3.50852 24.3359C3.12125 24.6757 2.51414 24.4007 2.51414 23.8855V20.9966C2.49263 20.8756 2.48145 20.7515 2.48145 20.625ZM7.50005 16.6146C7.50005 16.2982 7.75655 16.0417 8.07296 16.0417H14.4271C14.7435 16.0417 15 16.2982 15 16.6146C15 16.931 14.7435 17.1875 14.4271 17.1875H8.07296C7.75655 17.1875 7.50005 16.931 7.50005 16.6146ZM11.823 18.3334C11.5066 18.3334 11.2501 18.5899 11.2501 18.9063C11.2501 19.2227 11.5066 19.4792 11.823 19.4792H14.4272C14.7436 19.4792 15.0001 19.2227 15.0001 18.9063C15.0001 18.5899 14.7436 18.3334 14.4272 18.3334H11.823Z" fill="white"/>
</g>
</svg>
