<svg xmlns="http://www.w3.org/2000/svg" width="165" height="26" viewBox="0 0 165 26" fill="none">
    <path d="M14.489 12.5473C13.89 11.8186 13.3435 11.0497 12.8525 10.2438L12.8 10.1574C12.7444 10.0308 12.6858 9.90417 12.6271 9.78066C11.5032 7.47722 11.6545 5.22627 12.9235 3.0278C13.5997 1.85447 14.4828 0.854044 15.5358 0.00183105C15.5543 0.00183105 15.5635 0.00183105 15.5821 0.00491878C16.0483 0.461902 16.5393 0.894184 16.9746 1.37587C17.7713 2.25587 18.3795 3.2563 18.7995 4.36788C18.818 4.41419 18.8365 4.45742 18.8612 4.52226C20.6676 3.69475 22.5572 3.37363 24.555 3.53728C24.7156 5.5196 24.4006 7.40311 23.5731 9.22178C25.4288 9.91035 26.9881 11.0281 28.2881 12.5504C26.9974 14.0603 25.4474 15.1842 23.57 15.8727C24.3975 17.6822 24.7156 19.5718 24.555 21.5634C22.5696 21.7086 20.683 21.4183 18.8674 20.5723C18.1819 22.3848 17.0704 23.8885 15.5358 25.1328C15.2332 24.8549 14.912 24.5925 14.6249 24.2961C13.5689 23.2154 12.7228 21.9988 12.2319 20.5537C11.6545 18.8462 11.7873 17.1819 12.516 15.5485C12.6024 15.354 12.6981 15.1657 12.7877 14.9742L12.8556 14.8631C13.3466 14.0541 13.8931 13.2791 14.489 12.5473ZM26.244 12.5534C25.2281 11.6518 24.1382 10.9478 22.866 10.5649C22.0972 10.3334 21.316 10.284 20.5193 10.4383C19.5498 10.6267 18.6729 11.0312 17.8608 11.5777C17.4254 11.8711 17.0179 12.2014 16.5794 12.5318C17.4594 13.3099 18.3734 13.9244 19.417 14.3412C20.2538 14.6747 21.1153 14.8322 22.0045 14.7118C23.6565 14.4864 24.9935 13.6372 26.244 12.5534ZM15.545 13.6033C14.7515 14.5141 14.1061 15.4713 13.6955 16.5829C13.3404 17.5432 13.2477 18.5189 13.4732 19.5132C13.6739 20.3994 14.066 21.2022 14.5909 21.9401C14.8812 22.3508 15.2054 22.7337 15.5265 23.1443C16.2768 22.3415 16.8697 21.4986 17.2803 20.5352C17.6817 19.6027 17.8577 18.6301 17.6755 17.6204C17.3915 16.0765 16.5918 14.7951 15.545 13.6033ZM15.5419 1.99341C15.0047 2.54921 14.5508 3.14514 14.1833 3.80282C13.748 4.57784 13.4299 5.393 13.362 6.29153C13.2694 7.51118 13.6368 8.61041 14.2173 9.65715C14.5816 10.3148 15.0232 10.9231 15.5419 11.482C16.0854 10.8892 16.5424 10.2562 16.916 9.56452C17.3699 8.72466 17.6941 7.84157 17.7373 6.87202C17.7867 5.74192 17.4316 4.71679 16.8789 3.75342C16.5115 3.11735 16.0699 2.53377 15.5419 1.99341ZM18.605 15.6257C19.0712 16.7126 19.2688 17.7933 19.2071 18.9203C19.204 18.9883 19.2626 19.0902 19.3244 19.1241C20.4916 19.7602 21.7513 20.0319 23.076 20.106C23.0822 20.0628 23.0914 20.0319 23.0883 20.0041C23.0173 18.7104 22.7425 17.4722 22.1126 16.3297C22.0756 16.2618 21.949 16.2 21.8687 16.2062C21.0443 16.268 20.2414 16.1599 19.4572 15.916C19.1885 15.8295 18.923 15.7338 18.605 15.6257ZM23.0945 4.9916C21.7421 5.06879 20.4792 5.33434 19.3151 5.97967C19.2503 6.01672 19.204 6.15258 19.2071 6.23904C19.2379 7.0048 19.17 7.75511 18.9508 8.48999C18.8551 8.81112 18.7408 9.12915 18.6204 9.48115C19.698 9.02108 20.7849 8.82038 21.9212 8.88213C21.9891 8.88522 22.1003 8.80185 22.1311 8.73392C22.3349 8.27385 22.548 7.81378 22.7055 7.33518C22.9525 6.59104 23.0667 5.81602 23.0945 4.9916Z" fill="white"/>
    <path d="M27.7725 8.11947C28.0905 7.80144 28.424 7.46796 28.7389 7.15302C29.0693 7.48649 29.412 7.83232 29.7393 8.1627C29.4367 8.4653 29.1002 8.80186 28.7729 9.12607C28.4518 8.80495 28.1152 8.4653 27.7725 8.11947Z" fill="white"/>
    <path d="M30.709 12.5226C31.0332 12.1953 31.3605 11.868 31.6631 11.5623C32.0058 11.902 32.3455 12.2416 32.6759 12.5689C32.3764 12.8684 32.0367 13.2081 31.7156 13.5292C31.3914 13.205 31.0486 12.8653 30.709 12.5226Z" fill="white"/>
    <path d="M27.7725 16.9473C28.0905 16.6261 28.4271 16.2927 28.7389 15.9777C29.0631 16.305 29.3997 16.6447 29.7208 16.9658C29.4244 17.2622 29.0817 17.6019 28.7544 17.9261C28.4425 17.6142 28.1028 17.2777 27.7725 16.9473Z" fill="white"/>
    <path d="M6.71365 8.00215C6.74453 6.58798 5.60516 4.76313 3.37891 4.70137C3.00838 3.67316 3.81119 2.19414 5.00923 1.69702C6.28137 1.1721 8.10313 1.63526 8.7392 3.52495C8.90594 3.48172 9.07268 3.43849 9.25794 3.39218C8.98313 2.41954 8.39338 1.74024 7.51955 1.26473C7.96109 0.585435 8.5632 0.146978 9.34748 0.0234685C9.71801 -0.0351984 10.1071 0.0327316 10.4869 0.0481703C10.6567 0.0543457 10.6999 0.146978 10.6999 0.313715C10.6906 1.12579 10.6968 1.94095 10.6968 2.75302C10.6968 4.47906 10.6968 6.20201 10.6968 7.92805C10.6968 8.02377 10.6968 8.11949 10.6968 8.243C10.0021 7.94966 9.31969 7.84159 8.59408 8.07935C8.64039 8.24609 8.68671 8.40665 8.73611 8.58265C8.91829 8.56412 9.0912 8.53942 9.2672 8.52707C9.71492 8.49619 10.141 8.58265 10.5239 8.81423C10.6042 8.86363 10.6876 8.98714 10.6906 9.07668C10.6999 10.9077 10.6968 12.7418 10.6968 14.5728C10.6968 14.5975 10.6876 14.6222 10.6752 14.6778C9.57289 14.0695 8.41808 13.9429 7.1799 14.261C7.23239 14.4524 7.27871 14.6192 7.32811 14.8013C8.14018 14.5852 8.92755 14.5914 9.70875 14.8631C9.71801 14.8662 9.72727 14.8662 9.73345 14.8693C10.6382 15.1749 10.6968 15.2552 10.6968 16.1939C10.6968 18.1608 10.6968 20.1246 10.6968 22.0915C10.6968 23.7928 9.55127 25.0433 7.85302 25.1329C6.51295 25.2008 5.42916 24.5153 4.96909 23.0579C4.84558 22.6719 4.65414 22.4867 4.24964 22.394C2.6749 22.042 1.78255 20.4056 2.28276 18.8679C2.39083 18.5313 2.29203 18.3152 1.96164 18.1793C0.575249 17.5988 -0.122576 15.9438 0.482618 14.6192C1.12795 15.1811 1.86592 15.5084 2.74283 15.5146C2.74283 15.3293 2.74283 15.1657 2.74283 14.9866C2.52669 14.9465 2.30438 14.9248 2.09441 14.8662C1.03841 14.5821 0.349846 13.9059 0.0904767 12.8468C-0.168892 11.7877 0.133704 10.8707 0.942689 10.1327C1.15574 9.93816 1.19588 9.70349 1.05076 9.45647C0.479531 8.4931 0.525846 7.29507 1.20515 6.40889C1.90915 5.48875 2.85708 5.12131 3.99336 5.35289C5.10186 5.57829 5.93246 6.47373 6.12698 7.57296C6.13007 7.58222 6.13007 7.59149 6.13007 7.60075C6.20109 8.07935 6.20109 8.07935 6.71365 8.00215ZM3.80193 8.86672C3.64754 9.51205 3.76178 10.1049 4.08908 10.6514C4.66031 11.6024 5.5434 12.0162 6.63337 12.0471C6.17021 13.029 5.04319 13.3902 3.82663 12.9518C3.74017 13.1 3.65371 13.2482 3.55491 13.4211C3.6815 13.4798 3.7834 13.5323 3.88838 13.5755C5.13274 14.0634 6.61176 13.4427 7.23239 12.1644C7.31267 12.0008 7.40839 11.9081 7.5813 11.8402C8.38411 11.5253 8.91211 10.9571 9.14061 10.0956C8.94608 10.0524 8.77625 10.0154 8.61261 9.9783C8.14945 11.059 7.31885 11.5932 6.31842 11.4666C5.7719 11.3956 5.28712 11.1887 4.89498 10.7965C4.39477 10.2963 4.22185 9.67879 4.32375 8.98405C4.1354 8.94082 3.97175 8.90377 3.80193 8.86672ZM8.66818 21.8846C8.27913 20.4889 7.4053 19.5811 6.11154 19.0778C6.17021 18.2596 6.41414 17.815 7.26944 16.9627C7.22313 16.8917 7.17681 16.8176 7.12432 16.7435C7.07492 16.6725 7.01934 16.6015 6.96067 16.5243C6.12081 17.1202 5.68235 17.9446 5.53105 18.9265C4.95673 18.8555 4.42256 18.8277 3.87603 18.9883C3.92543 19.1797 3.96866 19.3465 4.01189 19.5163C4.94438 19.3063 5.7966 19.4514 6.58397 19.93C7.37443 20.4086 7.86846 21.1188 8.12474 22.0143C8.31618 21.971 8.47675 21.9309 8.66818 21.8846Z" fill="#1E2E5C"/>

</svg>