<svg width="254" height="37" viewBox="0 0 254 37" fill="none" xmlns="http://www.w3.org/2000/svg">
<g id="Group">
<path id="Vector" d="M0.350586 7.64709C0.350586 7.08211 0.477417 6.51714 0.731079 5.96369C0.984741 5.41025 1.34217 4.92598 1.81491 4.49937C2.28764 4.07275 2.85262 3.72685 3.4983 3.46166C4.14399 3.19646 4.84732 3.05811 5.59678 3.05811H11.2235C14.5326 3.05811 17.0923 3.80757 18.9025 5.30648C20.7127 6.80539 21.6236 8.73091 21.6236 11.0946C21.6236 13.931 20.2976 16.2139 17.6573 17.955C17.4382 18.0818 17.4382 18.2086 17.6573 18.3355C19.4214 19.2464 20.7819 20.4685 21.7274 22.0021C22.6728 23.5356 23.1456 25.1036 23.1456 26.7063C23.1456 28.3782 22.7766 29.8079 22.0618 31.0071C21.3354 32.2062 20.3784 33.1862 19.2023 33.9588C18.0147 34.7313 16.6772 35.2963 15.1783 35.6652C13.6794 36.0342 12.1459 36.2071 10.5662 36.2071H0.731079C0.477417 36.2071 0.350586 36.0803 0.350586 35.8266V7.64709ZM9.75914 16.4791C11.5578 16.4791 12.9645 16.1102 13.9907 15.3722C15.0169 14.6343 15.5242 13.6773 15.5242 12.5128C15.5242 11.1868 15.1783 10.2298 14.4865 9.63026C13.7947 9.0307 12.8146 8.73091 11.5578 8.73091H6.68061V16.4907H9.75914V16.4791ZM6.68061 30.5228H10.0359C12.0882 30.5228 13.7255 30.2 14.9592 29.5543C16.1929 28.9086 16.804 27.7556 16.804 26.0837C16.804 25.2074 16.5965 24.5041 16.1929 23.9852C15.7779 23.4664 15.2359 23.0744 14.5557 22.7976C13.8754 22.5324 13.0913 22.3595 12.192 22.2788C11.2926 22.1981 10.3587 22.1635 9.37865 22.1635H6.68061V30.5228Z" fill="#2E8544"/>
<path id="Vector_2" d="M31.7461 7.58995C30.8583 7.58995 30.0742 7.27863 29.3824 6.66754C28.6906 6.05644 28.3447 5.23782 28.3447 4.2347C28.3447 3.28923 28.6906 2.50518 29.3824 1.89408C30.0742 1.28299 30.8698 0.97168 31.7461 0.97168C32.5993 0.97168 33.3488 1.28299 33.9945 1.89408C34.6402 2.50518 34.963 3.28923 34.963 4.2347C34.963 5.23782 34.6402 6.05644 33.9945 6.66754C33.3488 7.29016 32.5993 7.58995 31.7461 7.58995ZM28.9558 36.1961C28.7022 36.1961 28.5753 36.0693 28.5753 35.8156V14.6925C28.5753 13.6894 28.7829 12.8938 29.1864 12.3058C29.6015 11.7177 30.0973 11.2911 30.6969 11.0029C31.2964 10.7146 31.9421 10.5417 32.6339 10.484C33.3257 10.4264 33.9599 10.3918 34.5249 10.3918C34.7785 10.3918 34.9053 10.5186 34.9053 10.7723V32.0453C34.9053 33.083 34.7439 33.8901 34.4096 34.4551C34.0752 35.02 33.6486 35.4351 33.1067 35.6888C32.5647 35.9424 31.9421 36.0923 31.2157 36.1385C30.5009 36.173 29.7399 36.1961 28.9558 36.1961Z" fill="#2E8544"/>
<path id="Vector_3" d="M41.1104 16.1107C41.1104 15.0038 41.3294 14.1275 41.7676 13.4588C42.2057 12.8016 42.7476 12.2942 43.3703 11.9483C44.0044 11.6024 44.6501 11.3718 45.3304 11.268C46.0106 11.1527 46.5871 11.1066 47.0599 11.1066C47.3135 11.1066 47.4404 11.2335 47.4404 11.4871V13.943C47.4404 14.1044 47.475 14.1852 47.5326 14.1852C47.5903 14.1852 47.6479 14.139 47.671 14.0468C48.2014 13.1936 48.9047 12.4672 49.7695 11.8676C50.6342 11.268 51.695 10.9683 52.9633 10.9683C54.197 10.9683 55.2808 11.245 56.2263 11.7984C57.1718 12.3519 58.0365 13.0783 58.8321 14.0007C58.9243 14.0929 59.0051 14.139 59.0742 14.139C59.2011 14.139 59.2818 14.0929 59.3164 14.0007C59.7891 13.4357 60.2964 12.9514 60.8499 12.5594C61.4033 12.1674 61.9798 11.8445 62.5794 11.6139C63.179 11.3833 63.79 11.2104 64.4011 11.1181C65.0122 11.0259 65.5887 10.9798 66.1307 10.9798C67.4797 10.9798 68.7134 11.245 69.8203 11.7638C70.9272 12.2827 71.8726 12.986 72.6567 13.8623C73.4407 14.7386 74.0518 15.7648 74.4784 16.9063C74.9051 18.0593 75.1126 19.2815 75.1126 20.5728V35.8502C75.1126 36.1039 74.9858 36.2307 74.7321 36.2307C73.9481 36.2307 73.1871 36.1615 72.4607 36.0232C71.7343 35.8848 71.1001 35.6427 70.5467 35.3083C69.9932 34.9739 69.5551 34.5358 69.2207 33.9823C68.8863 33.4289 68.7249 32.7601 68.7249 31.9761V21.1032C68.7249 20.4691 68.6673 19.858 68.5635 19.2584C68.4482 18.6588 68.2753 18.1284 68.0216 17.6788C67.7679 17.2176 67.4105 16.8486 66.9608 16.5719C66.4996 16.2836 65.9462 16.1453 65.2774 16.1453C64.6433 16.1453 64.0898 16.2606 63.594 16.4796C63.1098 16.6987 62.6832 16.987 62.3373 17.3559C61.9914 17.7134 61.7262 18.1169 61.5532 18.5666C61.3803 19.0047 61.288 19.4659 61.288 19.9387V35.8733C61.288 36.1269 61.1612 36.2538 60.9075 36.2538C60.308 36.2538 59.6507 36.1961 58.9474 36.0923C58.2441 35.977 57.5869 35.781 57.0104 35.4812C56.4223 35.1815 55.9381 34.7548 55.546 34.1783C55.154 33.6134 54.958 32.887 54.958 31.9992V21.1263C54.958 20.5267 54.9003 19.9387 54.7966 19.3506C54.6813 18.7626 54.5083 18.2438 54.2547 17.771C54.001 17.2983 53.6436 16.9178 53.1939 16.618C52.7327 16.3182 52.1447 16.1683 51.4183 16.1683C50.2537 16.1683 49.3083 16.5373 48.5819 17.2752C47.8555 18.0132 47.498 18.901 47.498 19.9502V32.149C47.498 33.1291 47.279 33.8901 46.8639 34.4435C46.4373 34.997 45.9069 35.4005 45.2842 35.6773C44.6501 35.9424 44.0044 36.1154 43.3241 36.173C42.6439 36.2422 42.0443 36.2653 41.5024 36.2653C41.2487 36.2653 41.1219 36.1384 41.1219 35.8848V16.1107H41.1104Z" fill="#2E8544"/>
<path id="Vector_4" d="M92.9253 10.9565C94.724 10.9565 96.3843 11.2794 97.9178 11.9251C99.4513 12.5708 100.766 13.447 101.884 14.5539C103.003 15.6608 103.89 16.9637 104.536 18.4742C105.182 19.9846 105.505 21.6219 105.505 23.3975C105.505 25.1732 105.193 26.8335 104.559 28.4131C103.925 29.9927 103.049 31.3648 101.907 32.5524C100.777 33.74 99.4398 34.6739 97.9178 35.3657C96.3843 36.0576 94.724 36.4035 92.9253 36.4035C91.1266 36.4035 89.4662 36.0576 87.9327 35.3657C86.3992 34.6739 85.0733 33.74 83.9433 32.5524C82.8134 31.3648 81.914 29.9927 81.2683 28.4131C80.6227 26.8335 80.2998 25.1616 80.2998 23.3975C80.2998 21.6334 80.6227 19.9961 81.2683 18.4742C81.914 16.9637 82.8018 15.6493 83.9433 14.5539C85.0733 13.447 86.4108 12.5823 87.9327 11.9251C89.4662 11.2794 91.1266 10.9565 92.9253 10.9565ZM92.9253 31.1919C93.9053 31.1919 94.7816 30.9497 95.5541 30.4539C96.3266 29.9697 96.9723 29.347 97.4912 28.5861C98.01 27.8251 98.4136 26.9834 98.7018 26.061C98.9901 25.127 99.1285 24.2392 99.1285 23.386C99.1285 22.5328 98.9901 21.6795 98.7018 20.8032C98.4136 19.9385 98.01 19.1544 97.4681 18.4626C96.9262 17.7708 96.2805 17.2059 95.5311 16.7792C94.7701 16.3526 93.9053 16.1451 92.9253 16.1451C91.9452 16.1451 91.0689 16.3526 90.2964 16.7792C89.5239 17.2059 88.8782 17.7593 88.3593 18.4626C87.8405 19.1544 87.4369 19.9385 87.1487 20.8032C86.8604 21.668 86.7221 22.5328 86.7221 23.386C86.7221 24.2623 86.8604 25.1616 87.1487 26.084C87.4369 26.9949 87.829 27.8366 88.3593 28.5861C88.8782 29.347 89.5239 29.9697 90.2964 30.4539C91.0689 30.9497 91.9452 31.1919 92.9253 31.1919Z" fill="#2E8544"/>
<path id="Vector_5" d="M110.706 7.64833C110.706 6.51838 110.902 5.64209 111.294 5.01947C111.686 4.39684 112.182 3.95869 112.781 3.67044C113.381 3.38219 114.038 3.22077 114.741 3.17465C115.445 3.12853 116.102 3.10547 116.702 3.10547C116.955 3.10547 117.082 3.2323 117.082 3.48596V16.4458H130.411V7.64833C130.411 6.51838 130.607 5.64209 130.999 5.04252C131.391 4.44296 131.887 4.00481 132.486 3.71656C133.086 3.42831 133.743 3.26689 134.446 3.22077C135.15 3.17465 135.807 3.15159 136.406 3.15159C136.66 3.15159 136.787 3.27842 136.787 3.53209V32.0921C136.787 33.0722 136.626 33.8332 136.291 34.3866C135.957 34.9401 135.519 35.3436 134.965 35.6203C134.412 35.8855 133.778 36.0585 133.074 36.1161C132.371 36.1853 131.633 36.2084 130.872 36.2084C130.561 36.2084 130.399 36.0815 130.399 35.8279V22.1186H117.07V32.0921C117.07 33.0722 116.851 33.8447 116.436 34.4097C116.01 34.9746 115.491 35.3897 114.88 35.6434C114.269 35.8971 113.623 36.0585 112.943 36.1161C112.262 36.1853 111.674 36.2084 111.167 36.2084C110.856 36.2084 110.694 36.0815 110.694 35.8279V7.64833H110.706Z" fill="#1E2E5C"/>
<path id="Vector_6" d="M166.637 21.5876C166.695 22.118 166.603 22.6253 166.349 23.098C166.095 23.5708 165.761 23.9974 165.335 24.3779C164.908 24.7584 164.412 25.0812 163.847 25.3464C163.282 25.6116 162.717 25.8076 162.141 25.9345L149.711 27.1682C149.999 28.621 150.657 29.6817 151.694 30.362C152.732 31.0423 154.058 31.3767 155.661 31.3767C156.918 31.3767 158.117 31.2268 159.258 30.927C160.388 30.6272 161.553 30.2121 162.752 29.6702C163.063 29.5434 163.305 29.4857 163.455 29.4857C163.743 29.4857 163.985 29.578 164.193 29.7509C164.401 29.9239 164.527 30.1545 164.597 30.4312C164.654 30.7194 164.643 31.0192 164.55 31.3305C164.458 31.6418 164.262 31.9416 163.985 32.2299C163.478 32.7026 162.913 33.1984 162.279 33.7173C161.645 34.2361 160.918 34.7088 160.1 35.1355C159.281 35.5621 158.359 35.908 157.333 36.1732C156.306 36.4384 155.176 36.5767 153.954 36.5767C152.029 36.5767 150.357 36.2308 148.916 35.539C147.486 34.8472 146.287 33.9133 145.318 32.7487C144.361 31.5842 143.635 30.2467 143.162 28.7593C142.689 27.2604 142.447 25.6923 142.447 24.055C142.447 22.2909 142.712 20.596 143.254 18.9703C143.785 17.3445 144.592 15.9148 145.664 14.6695C146.736 13.4243 148.085 12.4327 149.734 11.6948C151.372 10.9569 153.286 10.5879 155.453 10.5879C157.125 10.5879 158.612 10.8877 159.927 11.4872C161.23 12.0868 162.36 12.8939 163.305 13.9201C164.251 14.9463 165 16.1223 165.554 17.4483C166.13 18.7512 166.476 20.1463 166.637 21.5876ZM160.065 21.1149C160.008 20.4577 159.835 19.8004 159.546 19.1548C159.258 18.5091 158.889 17.9441 158.44 17.4483C157.978 16.964 157.436 16.5605 156.814 16.2376C156.18 15.9263 155.488 15.7649 154.738 15.7649C153.977 15.7649 153.251 15.9263 152.536 16.2607C151.833 16.5951 151.21 17.0447 150.691 17.6097C150.172 18.1747 149.757 18.8319 149.435 19.5698C149.123 20.3078 148.962 21.1033 148.962 21.9566L160.065 21.1149Z" fill="#1E2E5C"/>
<path id="Vector_7" d="M184.648 20.5036L184.832 20.5959C184.89 20.5959 184.924 20.5152 184.924 20.3537C184.924 19.9732 184.89 19.4774 184.809 18.8433C184.728 18.2091 184.521 17.5865 184.175 16.9754C183.829 16.3643 183.299 15.8339 182.595 15.3958C181.892 14.9577 180.9 14.7386 179.644 14.7386C179.079 14.7386 178.306 14.8308 177.349 15.0268C176.392 15.2113 175.297 15.6264 174.063 16.2606C173.879 16.3528 173.683 16.3989 173.498 16.3989C173.152 16.3989 172.887 16.2606 172.691 15.9954C172.506 15.7302 172.506 15.4188 172.691 15.0729C173.475 13.6547 174.674 12.4787 176.288 11.5563C177.891 10.6223 179.724 10.1611 181.777 10.1611C183.322 10.1611 184.694 10.4263 185.893 10.9682C187.092 11.5102 188.095 12.225 188.914 13.1474C189.732 14.0583 190.355 15.1537 190.782 16.4104C191.208 17.6672 191.416 19.0162 191.416 20.4344L191.37 35.8502C191.37 36.1038 191.243 36.2307 190.989 36.2307C190.459 36.2307 189.905 36.2191 189.34 36.1846C188.775 36.15 188.257 36.0693 187.784 35.9194C187.311 35.781 186.919 35.5504 186.631 35.2391C186.331 34.9278 186.181 34.4781 186.181 33.9131C186.181 33.7286 186.135 33.6249 186.043 33.6249C185.985 33.6249 185.916 33.671 185.858 33.7632C185.224 34.5473 184.302 35.193 183.091 35.6772C181.88 36.1615 180.578 36.4152 179.194 36.4152C177.937 36.4152 176.761 36.1846 175.7 35.7349C174.628 35.2737 173.694 34.6511 172.91 33.8439C172.126 33.0368 171.515 32.0914 171.088 31.0075C170.662 29.9237 170.454 28.7476 170.454 27.4793C170.454 25.9689 170.696 24.6775 171.192 23.6283C171.676 22.5675 172.334 21.7143 173.152 21.0455C173.971 20.3883 174.916 19.9041 175.989 19.6043C177.061 19.3045 178.168 19.1546 179.298 19.1546C179.863 19.1546 180.658 19.2238 181.684 19.3621C182.676 19.489 183.679 19.8695 184.648 20.5036ZM176.807 27.2603C176.807 28.3671 177.13 29.278 177.776 30.0044C178.421 30.7308 179.378 31.0883 180.635 31.0883C181.073 31.0883 181.546 31.0306 182.053 30.9268C182.561 30.8115 183.022 30.6386 183.449 30.3849C183.875 30.1313 184.233 29.7969 184.509 29.3933C184.798 28.9898 184.936 28.4824 184.936 27.8829V25.5653C183.702 24.2048 182.272 23.536 180.635 23.536C180.162 23.536 179.701 23.5937 179.24 23.7205C178.779 23.8473 178.375 24.0549 178.006 24.3316C177.649 24.6199 177.349 24.9888 177.13 25.4616C176.911 25.9343 176.807 26.5339 176.807 27.2603Z" fill="#1E2E5C"/>
<path id="Vector_8" d="M203.095 3.10547C203.349 3.10547 203.476 3.2323 203.476 3.48596V27.1688C203.476 27.8606 203.533 28.5524 203.66 29.2442C203.787 29.936 204.017 30.5932 204.34 31.2043C204.675 31.8154 205.136 32.3804 205.735 32.8877C206.335 33.395 207.096 33.7986 208.007 34.1214C208.261 34.2137 208.422 34.3751 208.503 34.5942C208.583 34.8132 208.606 35.0438 208.572 35.2744C208.537 35.5166 208.434 35.7241 208.261 35.9086C208.088 36.0931 207.857 36.1968 207.58 36.1968C205.943 36.1968 204.479 36.0239 203.187 35.678C201.896 35.3321 200.801 34.8017 199.901 34.0753C199.002 33.3489 198.31 32.415 197.826 31.285C197.342 30.1551 197.088 28.783 197.088 27.1688V7.6368C197.088 6.5645 197.307 5.73433 197.745 5.13477C198.183 4.5352 198.725 4.08552 199.348 3.78574C199.982 3.48596 200.628 3.30148 201.308 3.22077C202 3.14006 202.588 3.10547 203.095 3.10547Z" fill="#1E2E5C"/>
<path id="Vector_9" d="M210.372 16.1108C210.118 16.1108 209.991 15.984 209.991 15.7303C209.991 14.4044 210.222 13.309 210.671 12.4212C211.133 11.5449 211.767 11.0953 212.585 11.0953H214.05V10.1959C214.05 9.1582 214.257 8.30497 214.684 7.64776C215.111 6.99054 215.629 6.46015 216.241 6.09119C216.852 5.7107 217.509 5.45704 218.201 5.30715C218.892 5.16879 219.504 5.09961 220.045 5.09961C220.299 5.09961 220.426 5.22643 220.426 5.4801L220.472 11.1068H227.494C227.748 11.1068 227.874 11.2336 227.874 11.4873C227.874 11.9946 227.828 12.525 227.736 13.0669C227.644 13.6203 227.482 14.1161 227.263 14.5543C227.044 14.9924 226.733 15.3614 226.341 15.6612C225.949 15.961 225.465 16.1108 224.9 16.1108H220.507V28.1252C220.507 28.5633 220.541 29.013 220.599 29.4512C220.657 29.8893 220.795 30.2813 221.002 30.6042C221.21 30.9386 221.487 31.2037 221.856 31.4113C222.225 31.6188 222.697 31.7226 223.297 31.7226C223.77 31.7226 224.242 31.6649 224.715 31.5612C225.188 31.4459 225.638 31.3075 226.064 31.1346C226.491 30.9616 226.871 30.7887 227.229 30.6157C227.575 30.4428 227.863 30.2929 228.082 30.166C228.336 30.0046 228.555 29.9354 228.739 29.9354C229.085 29.9354 229.281 30.143 229.327 30.5465C229.373 30.9616 229.143 31.4228 228.635 31.9647C228.347 32.253 227.978 32.6219 227.505 33.0947C227.033 33.5674 226.468 34.0401 225.799 34.5129C225.142 34.9856 224.392 35.3892 223.574 35.7235C222.755 36.0579 221.856 36.2193 220.876 36.2193C219.803 36.2193 218.846 36.0002 218.016 35.5621C217.174 35.124 216.471 34.5359 215.883 33.8095C215.295 33.0831 214.857 32.2299 214.557 31.2383C214.257 30.2467 214.107 29.209 214.107 28.1367V16.1224H210.372V16.1108Z" fill="#1E2E5C"/>
<path id="Vector_10" d="M233.12 7.69366C233.12 6.69054 233.339 5.88343 233.754 5.28386C234.169 4.6843 234.7 4.22309 235.311 3.91178C235.922 3.60047 236.567 3.3814 237.248 3.27763C237.928 3.16233 238.528 3.11621 239.069 3.11621C239.323 3.11621 239.45 3.24304 239.45 3.4967V12.617C239.45 12.8015 239.496 12.9053 239.588 12.9053C239.646 12.9053 239.715 12.8707 239.773 12.813C240.246 12.2826 240.903 11.7868 241.733 11.3487C242.575 10.9106 243.589 10.6915 244.788 10.6915C245.988 10.6915 247.141 10.9336 248.236 11.4179C249.343 11.9021 250.311 12.6055 251.165 13.4933C252.018 14.3926 252.698 15.4534 253.217 16.6871C253.736 17.9208 254.001 19.2929 254.001 20.8034V35.8386C254.001 36.0923 253.874 36.2191 253.62 36.2191C252.894 36.2191 252.179 36.1845 251.464 36.1269C250.749 36.0692 250.115 35.8963 249.55 35.608C248.985 35.3198 248.524 34.9047 248.155 34.3282C247.786 33.7632 247.613 32.9676 247.613 31.9645V21.23C247.613 20.5958 247.556 19.9732 247.429 19.3391C247.302 18.7049 247.094 18.1284 246.818 17.6095C246.529 17.0907 246.149 16.6756 245.665 16.3528C245.169 16.0414 244.569 15.88 243.843 15.88C243.278 15.88 242.725 15.9953 242.194 16.2144C241.652 16.4335 241.179 16.7217 240.776 17.0907C240.361 17.4481 240.038 17.8863 239.807 18.3936C239.565 18.9009 239.45 19.4313 239.45 19.9963V31.953C239.45 32.9907 239.289 33.7978 238.977 34.3628C238.666 34.9277 238.239 35.3428 237.697 35.6195C237.155 35.8847 236.533 36.0577 235.806 36.1153C235.08 36.1845 234.308 36.2076 233.489 36.2076C233.235 36.2076 233.108 36.0807 233.108 35.8271V7.69366H233.12Z" fill="#1E2E5C"/>
</g>
</svg>
