<svg width="67" height="52" viewBox="0 0 67 52" fill="none" xmlns="http://www.w3.org/2000/svg">
<g id="Group 3">
<g id="Group">
<g id="KSl4he.tif_1_">
<g id="Group_2">
<path id="Vector" d="M30.0621 26.1529C28.8565 24.6862 27.7565 23.1387 26.7683 21.5167L26.6627 21.3427C26.5508 21.0879 26.4327 20.8331 26.3146 20.5845C24.0525 15.9483 24.357 11.4177 26.9113 6.9928C28.2723 4.6312 30.0497 2.61762 32.1689 0.902344C32.2062 0.902344 32.2249 0.902344 32.2622 0.908559C33.2006 1.82834 34.1887 2.69841 35.065 3.66791C36.6684 5.43911 37.8927 7.45269 38.7379 9.69C38.7752 9.78323 38.8125 9.87023 38.8622 10.0007C42.4979 8.33519 46.3013 7.68885 50.3222 8.01824C50.6454 12.0081 50.0115 15.7991 48.3459 19.4596C52.081 20.8455 55.2194 23.0952 57.8359 26.1591C55.2381 29.1981 52.1183 31.4603 48.3397 32.8462C50.0053 36.488 50.6454 40.2914 50.3222 44.3C46.3261 44.5921 42.5289 44.0079 38.8747 42.305C37.495 45.9531 35.2577 48.9797 32.1689 51.4842C31.5599 50.9249 30.9136 50.3966 30.3356 49.8C28.2101 47.6249 26.5073 45.1762 25.5192 42.2677C24.357 38.831 24.6242 35.4812 26.0909 32.1936C26.2649 31.8021 26.4576 31.423 26.6378 31.0377L26.7745 30.8139C27.7627 29.1857 28.8627 27.6258 30.0621 26.1529ZM53.7217 26.1653C51.677 24.3506 49.4832 22.9336 46.9228 22.163C45.3753 21.6969 43.803 21.5975 42.1995 21.9082C40.2481 22.2873 38.4831 23.1014 36.8486 24.2015C35.9724 24.7919 35.152 25.4568 34.2695 26.1218C36.0407 27.6879 37.8803 28.9247 39.9809 29.7637C41.6651 30.4348 43.399 30.7518 45.1888 30.5094C48.5137 30.0557 51.2047 28.3467 53.7217 26.1653ZM32.1876 28.2783C30.5904 30.1117 29.2915 32.0383 28.4649 34.2756C27.7503 36.2084 27.5638 38.1722 28.0175 40.1734C28.4214 41.957 29.2107 43.5728 30.2672 45.0582C30.8514 45.8847 31.504 46.6554 32.1503 47.4819C33.6605 45.8661 34.8537 44.1695 35.6803 42.2304C36.4882 40.3536 36.8424 38.3959 36.4758 36.3637C35.904 33.2563 34.2944 30.6772 32.1876 28.2783ZM32.1814 4.91086C31.1 6.02951 30.1864 7.22896 29.4469 8.5527C28.5706 10.1126 27.9305 11.7533 27.7938 13.5618C27.6073 16.0166 28.3469 18.2291 29.5152 20.3359C30.2486 21.6596 31.1373 22.8839 32.1814 24.0088C33.2752 22.8156 34.1949 21.5415 34.9469 20.1494C35.8605 18.459 36.513 16.6816 36.6001 14.7302C36.6995 12.4556 35.9848 10.3923 34.8724 8.45327C34.1328 7.17303 33.2441 5.99844 32.1814 4.91086ZM38.3464 32.349C39.2848 34.5366 39.6826 36.7118 39.5583 38.9801C39.5521 39.1169 39.6701 39.3219 39.7944 39.3903C42.1436 40.6705 44.6792 41.2174 47.3454 41.3666C47.3578 41.2796 47.3764 41.2174 47.3702 41.1615C47.2273 38.5575 46.6742 36.0654 45.4064 33.766C45.3318 33.6292 45.077 33.5049 44.9154 33.5174C43.2561 33.6417 41.6402 33.4241 40.0617 32.9332C39.521 32.7592 38.9865 32.5665 38.3464 32.349ZM47.3827 10.9454C44.6606 11.1008 42.1188 11.6352 39.7758 12.9341C39.6453 13.0087 39.5521 13.2821 39.5583 13.4561C39.6204 14.9974 39.4837 16.5076 39.0425 17.9867C38.8498 18.633 38.6198 19.2732 38.3775 19.9816C40.5464 19.0556 42.734 18.6517 45.021 18.776C45.1578 18.7822 45.3815 18.6144 45.4436 18.4777C45.8538 17.5517 46.2826 16.6257 46.5996 15.6624C47.0968 14.1646 47.3267 12.6047 47.3827 10.9454Z" fill="#2E8544"/>
<path id="Vector_2" d="M56.7988 17.2416C57.4389 16.6015 58.1101 15.9303 58.744 15.2964C59.409 15.9676 60.0989 16.6636 60.7576 17.3286C60.1486 17.9377 59.4712 18.6151 58.8124 19.2676C58.1661 18.6213 57.4887 17.9377 56.7988 17.2416Z" fill="#2E8544"/>
<path id="Vector_3" d="M62.707 26.1032C63.3596 25.4444 64.0184 24.7857 64.6274 24.1704C65.3172 24.854 66.0009 25.5377 66.6658 26.1964C66.063 26.7993 65.3794 27.4829 64.733 28.1292C64.0805 27.4767 63.3907 26.793 62.707 26.1032Z" fill="#2E8544"/>
<path id="Vector_4" d="M56.7988 35.0081C57.4389 34.3617 58.1164 33.6905 58.744 33.0566C59.3966 33.7154 60.074 34.399 60.7203 35.0454C60.1237 35.642 59.4339 36.3256 58.7751 36.9781C58.1474 36.3505 57.4638 35.6731 56.7988 35.0081Z" fill="#2E8544"/>
</g>
</g>
<g id="m4Jpx2.tif_1_">
<g id="Group_3">
<path id="Vector_5" d="M14.4151 17.0046C14.4772 14.1582 12.184 10.4853 7.70316 10.361C6.95739 8.29151 8.57322 5.31464 10.9845 4.31407C13.545 3.25756 17.2117 4.18977 18.492 7.9932C18.8276 7.90619 19.1632 7.81919 19.5361 7.72597C18.9829 5.76832 17.7959 4.40108 16.0371 3.444C16.9259 2.07676 18.1377 1.19426 19.7163 0.945673C20.462 0.827593 21.2451 0.964317 22.0095 0.995391C22.3513 1.00782 22.4383 1.19426 22.4383 1.52986C22.4197 3.16434 22.4321 4.80503 22.4321 6.43951C22.4321 9.91356 22.4321 13.3814 22.4321 16.8554C22.4321 17.0481 22.4321 17.2408 22.4321 17.4893C21.0338 16.8989 19.6603 16.6814 18.1999 17.16C18.2931 17.4956 18.3863 17.8187 18.4858 18.173C18.8524 18.1357 19.2005 18.086 19.5547 18.0611C20.4558 17.999 21.3135 18.173 22.0841 18.6391C22.2457 18.7385 22.4135 18.9871 22.4197 19.1673C22.4383 22.8527 22.4321 26.5442 22.4321 30.2296C22.4321 30.2793 22.4135 30.329 22.3886 30.4409C20.17 29.2166 17.8456 28.9618 15.3535 29.6019C15.4592 29.9872 15.5524 30.3228 15.6518 30.6895C17.2863 30.2544 18.8711 30.2669 20.4434 30.8138C20.462 30.82 20.4807 30.82 20.4931 30.8262C22.314 31.4415 22.4321 31.603 22.4321 33.4923C22.4321 37.4511 22.4321 41.4037 22.4321 45.3625C22.4321 48.7868 20.1264 51.3038 16.7083 51.484C14.0111 51.6208 11.8298 50.2411 10.9038 47.3077C10.6552 46.5309 10.2699 46.158 9.45572 45.9715C6.2862 45.2631 4.49013 41.9692 5.49692 38.8743C5.71444 38.1969 5.51557 37.7619 4.85059 37.4884C2.06016 36.32 0.655631 32.9889 1.87372 30.3228C3.17261 31.4539 4.65793 32.1127 6.42292 32.1251C6.42292 31.7522 6.42292 31.4228 6.42292 31.0624C5.98789 30.9816 5.54043 30.9381 5.11782 30.82C2.99238 30.2482 1.60649 28.8872 1.08445 26.7555C0.562409 24.6239 1.17145 22.7781 2.79972 21.2928C3.22854 20.9012 3.30933 20.4289 3.01724 19.9317C1.86751 17.9927 1.96073 15.5814 3.32798 13.7978C4.74494 11.9458 6.65286 11.2062 8.93989 11.6723C11.171 12.126 12.8428 13.9283 13.2343 16.1407C13.2405 16.1594 13.2405 16.178 13.2405 16.1967C13.3834 17.16 13.3834 17.16 14.4151 17.0046ZM8.55458 18.7447C8.24384 20.0436 8.47379 21.2368 9.13256 22.3368C10.2823 24.251 12.0597 25.0838 14.2535 25.1459C13.3213 27.1222 11.0529 27.8493 8.6043 26.9668C8.43029 27.2651 8.25627 27.5635 8.0574 27.9115C8.31221 28.0296 8.51729 28.1352 8.72859 28.2222C11.2331 29.2041 14.21 27.955 15.4592 25.3821C15.6208 25.0527 15.8134 24.8663 16.1614 24.7295C17.7773 24.0956 18.84 22.9521 19.2999 21.2182C18.9084 21.1312 18.5666 21.0566 18.2372 20.982C17.305 23.1572 15.6332 24.2323 13.6196 23.9775C12.5196 23.8346 11.5439 23.4182 10.7546 22.6289C9.74782 21.6222 9.39979 20.3792 9.60487 18.9809C9.22577 18.8939 8.89639 18.8193 8.55458 18.7447ZM18.349 44.9461C17.566 42.137 15.8072 40.3099 13.2032 39.2969C13.3213 37.65 13.8123 36.7551 15.5337 35.0398C15.4405 34.8969 15.3473 34.7477 15.2417 34.5986C15.1422 34.4556 15.0304 34.3127 14.9123 34.1573C13.2219 35.3568 12.3394 37.0161 12.0348 38.9924C10.8789 38.8494 9.80375 38.7935 8.70374 39.1167C8.80317 39.502 8.89018 39.8376 8.97719 40.1794C10.854 39.7568 12.5693 40.0489 14.1541 41.0122C15.7451 41.9755 16.7394 43.4049 17.2552 45.2071C17.6406 45.1201 17.9637 45.0393 18.349 44.9461Z" fill="#1E2E5C"/>
</g>
</g>
</g>
</g>
</svg>
