<svg width="16" height="13" viewBox="0 0 16 13" fill="none" xmlns="http://www.w3.org/2000/svg">
<path id="Vector" d="M15.4678 2.27454C14.9075 2.51893 14.3148 2.68136 13.7082 2.75681C14.3475 2.37753 14.8255 1.77696 15.0517 1.06885C14.453 1.42388 13.7981 1.6739 13.1151 1.80809C12.6964 1.36099 12.1529 1.05015 11.5552 0.915965C10.9575 0.78178 10.3332 0.830448 9.76356 1.05565C9.19388 1.28085 8.7051 1.67217 8.36072 2.17877C8.01633 2.68536 7.83226 3.28383 7.83243 3.8964C7.83243 4.13847 7.85291 4.37122 7.90319 4.59281C6.68826 4.53325 5.49959 4.21793 4.41488 3.66747C3.33017 3.11702 2.37386 2.34382 1.60846 1.39843C1.21633 2.07051 1.0951 2.86677 1.26946 3.6251C1.44381 4.38342 1.90065 5.04677 2.54694 5.48009C2.06351 5.46712 1.59028 5.33812 1.16715 5.10395V5.13747C1.16796 5.84266 1.4117 6.52605 1.85734 7.07258C2.30298 7.61912 2.92331 7.99544 3.61391 8.13819C3.35265 8.20704 3.08339 8.24086 2.81322 8.23874C2.61918 8.24219 2.42534 8.22471 2.23505 8.1866C2.43237 8.79273 2.81275 9.32278 3.32379 9.70378C3.83484 10.0848 4.45143 10.298 5.08867 10.314C4.00768 11.1594 2.67447 11.618 1.30215 11.6165C1.0517 11.6165 0.811496 11.6054 0.571289 11.5746C1.96773 12.4745 3.59499 12.9505 5.25625 12.9451C10.876 12.9451 13.9484 8.28995 13.9484 4.25485C13.9484 4.11985 13.9437 3.9895 13.9372 3.86009C14.5396 3.42901 15.0583 2.8917 15.4678 2.27454Z" fill="#03A9F4"/>
</svg>
