<svg width="165" height="26" viewBox="0 0 165 26" fill="none" xmlns="http://www.w3.org/2000/svg">
<g id="Group 5">
<g id="Group 4">
<g id="Group">
<path id="Vector" d="M38.9766 7.32686C38.9766 7.04616 39.0396 6.76546 39.1656 6.49048C39.2916 6.21551 39.4692 5.97491 39.7041 5.76295C39.939 5.55099 40.2197 5.37913 40.5405 5.24737C40.8613 5.11562 41.2107 5.04688 41.5831 5.04688H44.3786C46.0227 5.04688 47.2945 5.41924 48.1939 6.16395C49.0933 6.90867 49.5458 7.86534 49.5458 9.0397C49.5458 10.4489 48.887 11.5832 47.5752 12.4482C47.4663 12.5112 47.4663 12.5742 47.5752 12.6373C48.4517 13.0898 49.1276 13.697 49.5974 14.459C50.0671 15.2209 50.302 15.9999 50.302 16.7962C50.302 17.6269 50.1187 18.3372 49.7635 18.933C49.4026 19.5288 48.9271 20.0157 48.3428 20.3995C47.7528 20.7833 47.0883 21.064 46.3435 21.2473C45.5988 21.4307 44.8369 21.5166 44.0521 21.5166H39.1656C39.0396 21.5166 38.9766 21.4536 38.9766 21.3275V7.32686ZM43.6511 11.715C44.5448 11.715 45.2436 11.5316 45.7535 11.165C46.2633 10.7984 46.5154 10.3229 46.5154 9.74432C46.5154 9.08554 46.3435 8.61006 45.9998 8.31218C45.6561 8.01429 45.1692 7.86534 44.5448 7.86534H42.1216V11.7207H43.6511V11.715ZM42.1216 18.6924H43.7886C44.8083 18.6924 45.6217 18.532 46.2347 18.2112C46.8476 17.8904 47.1513 17.3175 47.1513 16.4869C47.1513 16.0515 47.0482 15.7021 46.8476 15.4443C46.6414 15.1865 46.3722 14.9917 46.0342 14.8542C45.6962 14.7225 45.3067 14.6365 44.8598 14.5964C44.413 14.5563 43.949 14.5392 43.4621 14.5392H42.1216V18.6924Z" fill="white"/>
<path id="Vector_2" d="M54.5757 7.29822C54.1346 7.29822 53.745 7.14355 53.4013 6.83993C53.0576 6.53632 52.8857 6.12959 52.8857 5.6312C52.8857 5.16146 53.0576 4.77191 53.4013 4.46829C53.745 4.16468 54.1403 4.01001 54.5757 4.01001C54.9996 4.01001 55.372 4.16468 55.6928 4.46829C56.0136 4.77191 56.174 5.16146 56.174 5.6312C56.174 6.12959 56.0136 6.53632 55.6928 6.83993C55.372 7.14928 54.9996 7.29822 54.5757 7.29822ZM53.1894 21.5109C53.0633 21.5109 53.0003 21.4478 53.0003 21.3218V10.827C53.0003 10.3286 53.1034 9.93338 53.3039 9.64122C53.5102 9.34906 53.7565 9.1371 54.0544 8.99388C54.3523 8.85067 54.6731 8.76474 55.0168 8.7361C55.3605 8.70746 55.6756 8.69027 55.9563 8.69027C56.0823 8.69027 56.1453 8.75328 56.1453 8.87931V19.4486C56.1453 19.9641 56.0651 20.3651 55.899 20.6458C55.7329 20.9265 55.5209 21.1328 55.2517 21.2588C54.9824 21.3848 54.6731 21.4593 54.3122 21.4822C53.957 21.4994 53.5789 21.5109 53.1894 21.5109Z" fill="white"/>
<path id="Vector_3" d="M59.2275 11.5316C59.2275 10.9817 59.3364 10.5463 59.5541 10.2141C59.7718 9.88753 60.041 9.63547 60.3503 9.46361C60.6654 9.29176 60.9862 9.17719 61.3242 9.12563C61.6622 9.06834 61.9486 9.04543 62.1835 9.04543C62.3095 9.04543 62.3725 9.10844 62.3725 9.23447V10.4547C62.3725 10.5349 62.3897 10.575 62.4184 10.575C62.447 10.575 62.4757 10.552 62.4871 10.5062C62.7506 10.0823 63.1001 9.7214 63.5297 9.42351C63.9594 9.12563 64.4864 8.97668 65.1165 8.97668C65.7295 8.97668 66.268 9.11417 66.7377 9.38914C67.2075 9.66412 67.6371 10.025 68.0324 10.4833C68.0782 10.5291 68.1183 10.552 68.1527 10.552C68.2157 10.552 68.2558 10.5291 68.273 10.4833C68.5079 10.2026 68.7599 9.962 69.0349 9.76723C69.3099 9.57246 69.5963 9.41206 69.8942 9.29748C70.1921 9.18291 70.4957 9.09698 70.7993 9.05115C71.1029 9.00533 71.3893 8.98241 71.6586 8.98241C72.3288 8.98241 72.9418 9.11417 73.4917 9.37196C74.0417 9.62975 74.5114 9.97919 74.901 10.4146C75.2905 10.8499 75.5941 11.3598 75.8061 11.9269C76.018 12.4998 76.1212 13.107 76.1212 13.7486V21.339C76.1212 21.465 76.0581 21.528 75.9321 21.528C75.5426 21.528 75.1645 21.4937 74.8036 21.4249C74.4427 21.3562 74.1276 21.2359 73.8526 21.0697C73.5777 20.9036 73.36 20.6859 73.1938 20.411C73.0277 20.136 72.9475 19.8037 72.9475 19.4142V14.0121C72.9475 13.697 72.9189 13.3934 72.8673 13.0955C72.81 12.7977 72.7241 12.5341 72.5981 12.3107C72.472 12.0816 72.2945 11.8983 72.071 11.7608C71.8419 11.6176 71.5669 11.5488 71.2347 11.5488C70.9196 11.5488 70.6446 11.6061 70.3983 11.715C70.1577 11.8238 69.9457 11.967 69.7739 12.1503C69.602 12.3279 69.4703 12.5284 69.3843 12.7518C69.2984 12.9695 69.2526 13.1987 69.2526 13.4335V21.3504C69.2526 21.4765 69.1896 21.5395 69.0635 21.5395C68.7656 21.5395 68.4391 21.5108 68.0897 21.4593C67.7402 21.402 67.4137 21.3046 67.1273 21.1557C66.8351 21.0067 66.5945 20.7948 66.3997 20.5083C66.205 20.2276 66.1076 19.8667 66.1076 19.4256V14.0236C66.1076 13.7257 66.0789 13.4335 66.0274 13.1414C65.9701 12.8492 65.8842 12.5914 65.7581 12.3566C65.6321 12.1217 65.4545 11.9326 65.2311 11.7837C65.002 11.6348 64.7098 11.5603 64.3489 11.5603C63.7703 11.5603 63.3006 11.7436 62.9397 12.1102C62.5788 12.4769 62.4012 12.918 62.4012 13.4393V19.5001C62.4012 19.987 62.2923 20.3651 62.0861 20.6401C61.8741 20.9151 61.6106 21.1156 61.3013 21.2531C60.9862 21.3848 60.6654 21.4707 60.3274 21.4994C59.9894 21.5338 59.6916 21.5452 59.4223 21.5452C59.2963 21.5452 59.2333 21.4822 59.2333 21.3562V11.5316H59.2275Z" fill="white"/>
<path id="Vector_4" d="M84.9711 8.97095C85.8647 8.97095 86.6896 9.13135 87.4515 9.45215C88.2134 9.77295 88.8665 10.2083 89.4222 10.7583C89.9778 11.3082 90.4189 11.9555 90.7397 12.706C91.0605 13.4564 91.2209 14.2699 91.2209 15.1521C91.2209 16.0343 91.0663 16.8592 90.7512 17.644C90.4361 18.4289 90.0008 19.1106 89.4336 19.7006C88.8722 20.2906 88.2077 20.7547 87.4515 21.0984C86.6896 21.4421 85.8647 21.614 84.9711 21.614C84.0774 21.614 83.2525 21.4421 82.4906 21.0984C81.7287 20.7547 81.0699 20.2906 80.5085 19.7006C79.9471 19.1106 79.5002 18.4289 79.1794 17.644C78.8586 16.8592 78.6982 16.0286 78.6982 15.1521C78.6982 14.2756 78.8586 13.4622 79.1794 12.706C79.5002 11.9555 79.9413 11.3025 80.5085 10.7583C81.0699 10.2083 81.7344 9.77868 82.4906 9.45215C83.2525 9.13135 84.0774 8.97095 84.9711 8.97095ZM84.9711 19.0246C85.458 19.0246 85.8934 18.9043 86.2772 18.658C86.661 18.4174 86.9818 18.1081 87.2396 17.73C87.4974 17.3519 87.6979 16.9337 87.8411 16.4754C87.9843 16.0114 88.053 15.5703 88.053 15.1464C88.053 14.7225 87.9843 14.2985 87.8411 13.8632C87.6979 13.4335 87.4974 13.044 87.2281 12.7003C86.9589 12.3565 86.6381 12.0758 86.2657 11.8639C85.8876 11.6519 85.458 11.5488 84.9711 11.5488C84.4841 11.5488 84.0488 11.6519 83.6649 11.8639C83.2811 12.0758 82.9603 12.3508 82.7025 12.7003C82.4447 13.044 82.2442 13.4335 82.101 13.8632C81.9578 14.2928 81.8891 14.7225 81.8891 15.1464C81.8891 15.5817 81.9578 16.0286 82.101 16.4869C82.2442 16.9394 82.439 17.3576 82.7025 17.73C82.9603 18.1081 83.2811 18.4174 83.6649 18.658C84.0488 18.9043 84.4841 19.0246 84.9711 19.0246Z" fill="white"/>
<path id="Vector_5" d="M93.8046 7.32683C93.8046 6.76543 93.9019 6.33006 94.0967 6.02071C94.2915 5.71137 94.5378 5.49368 94.8357 5.35046C95.1336 5.20725 95.4601 5.12705 95.8096 5.10413C96.159 5.08122 96.4855 5.06976 96.7834 5.06976C96.9095 5.06976 96.9725 5.13278 96.9725 5.25881V11.6977H103.595V7.32683C103.595 6.76543 103.692 6.33005 103.887 6.03217C104.082 5.73428 104.328 5.51659 104.626 5.37338C104.924 5.23016 105.25 5.14996 105.6 5.12705C105.949 5.10413 106.276 5.09268 106.574 5.09268C106.7 5.09268 106.763 5.15569 106.763 5.28172V19.4714C106.763 19.9584 106.682 20.3365 106.516 20.6114C106.35 20.8864 106.132 21.0869 105.858 21.2244C105.583 21.3561 105.267 21.4421 104.918 21.4707C104.569 21.5051 104.202 21.5166 103.824 21.5166C103.669 21.5166 103.589 21.4535 103.589 21.3275V14.5162H96.9667V19.4714C96.9667 19.9584 96.8579 20.3422 96.6517 20.6229C96.4397 20.9036 96.1819 21.1098 95.8783 21.2359C95.5747 21.3619 95.2539 21.4421 94.9159 21.4707C94.5779 21.5051 94.2858 21.5166 94.0337 21.5166C93.879 21.5166 93.7988 21.4535 93.7988 21.3275V7.32683H93.8046Z" fill="#1E2E5C"/>
<path id="Vector_6" d="M121.595 14.2527C121.623 14.5162 121.578 14.7682 121.452 15.0031C121.326 15.238 121.159 15.4499 120.947 15.639C120.735 15.828 120.489 15.9884 120.208 16.1202C119.928 16.252 119.647 16.3493 119.361 16.4124L113.185 17.0253C113.328 17.7471 113.655 18.2741 114.171 18.6121C114.686 18.9501 115.345 19.1163 116.141 19.1163C116.766 19.1163 117.361 19.0418 117.928 18.8928C118.49 18.7439 119.068 18.5377 119.664 18.2684C119.819 18.2054 119.939 18.1768 120.014 18.1768C120.157 18.1768 120.277 18.2226 120.38 18.3085C120.483 18.3944 120.546 18.509 120.581 18.6465C120.609 18.7897 120.604 18.9387 120.558 19.0933C120.512 19.248 120.415 19.3969 120.277 19.5402C120.025 19.775 119.744 20.0214 119.429 20.2792C119.114 20.5369 118.753 20.7718 118.347 20.9838C117.94 21.1957 117.482 21.3676 116.972 21.4993C116.462 21.6311 115.901 21.6998 115.293 21.6998C114.337 21.6998 113.506 21.528 112.79 21.1843C112.08 20.8406 111.484 20.3765 111.003 19.798C110.527 19.2194 110.166 18.5548 109.931 17.8159C109.696 17.0711 109.576 16.2921 109.576 15.4786C109.576 14.6021 109.708 13.76 109.977 12.9523C110.241 12.1446 110.642 11.4342 111.174 10.8155C111.707 10.1968 112.377 9.70417 113.197 9.33754C114.01 8.97091 114.961 8.7876 116.038 8.7876C116.869 8.7876 117.608 8.93654 118.261 9.23443C118.908 9.53231 119.469 9.93332 119.939 10.4432C120.409 10.953 120.781 11.5373 121.056 12.1961C121.343 12.8434 121.515 13.5366 121.595 14.2527ZM118.329 14.0178C118.301 13.6913 118.215 13.3647 118.072 13.0439C117.928 12.7231 117.745 12.4424 117.522 12.1961C117.293 11.9555 117.023 11.755 116.714 11.5946C116.399 11.4399 116.055 11.3597 115.683 11.3597C115.305 11.3597 114.944 11.4399 114.589 11.6061C114.239 11.7722 113.93 11.9956 113.672 12.2763C113.414 12.557 113.208 12.8835 113.048 13.2502C112.893 13.6168 112.813 14.0121 112.813 14.436L118.329 14.0178Z" fill="#1E2E5C"/>
<path id="Vector_7" d="M130.542 13.7142L130.634 13.7601C130.662 13.7601 130.68 13.72 130.68 13.6398C130.68 13.4507 130.662 13.2044 130.622 12.8893C130.582 12.5742 130.479 12.2649 130.307 11.9613C130.135 11.6577 129.872 11.3942 129.522 11.1765C129.173 10.9588 128.68 10.8499 128.056 10.8499C127.775 10.8499 127.391 10.8958 126.916 10.9931C126.44 11.0848 125.896 11.291 125.283 11.6061C125.192 11.6519 125.094 11.6748 125.003 11.6748C124.831 11.6748 124.699 11.6061 124.602 11.4744C124.51 11.3426 124.51 11.1879 124.602 11.0161C124.991 10.3114 125.587 9.72713 126.389 9.26884C127.185 8.80483 128.096 8.57568 129.116 8.57568C129.883 8.57568 130.565 8.70744 131.161 8.97668C131.757 9.24593 132.255 9.6011 132.662 10.0594C133.068 10.5119 133.378 11.0562 133.59 11.6806C133.802 12.305 133.905 12.9752 133.905 13.6799L133.882 21.339C133.882 21.465 133.819 21.528 133.693 21.528C133.429 21.528 133.154 21.5223 132.874 21.5051C132.593 21.4879 132.335 21.4478 132.1 21.3734C131.865 21.3046 131.671 21.19 131.527 21.0354C131.379 20.8807 131.304 20.6573 131.304 20.3766C131.304 20.2849 131.281 20.2334 131.235 20.2334C131.207 20.2334 131.172 20.2563 131.144 20.3021C130.829 20.6917 130.37 21.0125 129.769 21.2531C129.167 21.4937 128.52 21.6197 127.833 21.6197C127.208 21.6197 126.624 21.5051 126.097 21.2817C125.564 21.0526 125.1 20.7432 124.71 20.3422C124.321 19.9412 124.017 19.4715 123.805 18.933C123.593 18.3945 123.49 17.8102 123.49 17.18C123.49 16.4296 123.611 15.788 123.857 15.2667C124.097 14.7396 124.424 14.3157 124.831 13.9835C125.237 13.6569 125.707 13.4163 126.24 13.2674C126.773 13.1185 127.323 13.044 127.884 13.044C128.165 13.044 128.56 13.0784 129.07 13.1471C129.563 13.2101 130.061 13.3992 130.542 13.7142ZM126.647 17.0712C126.647 17.6211 126.807 18.0737 127.128 18.4346C127.449 18.7955 127.924 18.9731 128.549 18.9731C128.766 18.9731 129.001 18.9444 129.253 18.8929C129.505 18.8356 129.734 18.7497 129.946 18.6236C130.158 18.4976 130.336 18.3315 130.473 18.131C130.617 17.9305 130.685 17.6784 130.685 17.3805V16.2291C130.072 15.5531 129.362 15.2209 128.549 15.2209C128.314 15.2209 128.085 15.2495 127.855 15.3125C127.626 15.3755 127.426 15.4786 127.242 15.6161C127.065 15.7593 126.916 15.9427 126.807 16.1775C126.698 16.4124 126.647 16.7103 126.647 17.0712Z" fill="#1E2E5C"/>
<path id="Vector_8" d="M139.708 5.06976C139.834 5.06976 139.897 5.13278 139.897 5.25881V17.0253C139.897 17.3691 139.926 17.7128 139.989 18.0565C140.052 18.4002 140.167 18.7267 140.327 19.0303C140.493 19.334 140.722 19.6147 141.02 19.8667C141.318 20.1188 141.696 20.3193 142.149 20.4797C142.275 20.5255 142.355 20.6057 142.395 20.7145C142.435 20.8234 142.446 20.938 142.429 21.0525C142.412 21.1728 142.361 21.2759 142.275 21.3676C142.189 21.4593 142.074 21.5108 141.937 21.5108C141.123 21.5108 140.396 21.4249 139.754 21.253C139.112 21.0812 138.568 20.8177 138.121 20.4568C137.675 20.0959 137.331 19.6318 137.09 19.0704C136.85 18.509 136.724 17.8273 136.724 17.0253V7.3211C136.724 6.78834 136.832 6.37588 137.05 6.078C137.268 5.78011 137.537 5.55669 137.846 5.40775C138.162 5.2588 138.482 5.16715 138.82 5.12705C139.164 5.08695 139.456 5.06976 139.708 5.06976Z" fill="#1E2E5C"/>
<path id="Vector_9" d="M143.323 11.5317C143.197 11.5317 143.134 11.4686 143.134 11.3426C143.134 10.6838 143.248 10.1396 143.472 9.69851C143.701 9.26313 144.016 9.03972 144.423 9.03972H145.15V8.59289C145.15 8.07732 145.253 7.6534 145.465 7.32687C145.677 7.00034 145.935 6.73682 146.239 6.55351C146.542 6.36446 146.869 6.23844 147.213 6.16397C147.556 6.09522 147.86 6.06085 148.129 6.06085C148.255 6.06085 148.318 6.12386 148.318 6.24989L148.341 9.04545H151.83C151.956 9.04545 152.019 9.10846 152.019 9.23449C152.019 9.48655 151.996 9.75006 151.95 10.0193C151.904 10.2943 151.824 10.5406 151.715 10.7583C151.606 10.976 151.452 11.1593 151.257 11.3082C151.062 11.4572 150.822 11.5317 150.541 11.5317H148.358V17.5008C148.358 17.7185 148.375 17.9419 148.404 18.1596C148.433 18.3773 148.501 18.5721 148.605 18.7325C148.708 18.8986 148.845 19.0304 149.029 19.1335C149.212 19.2366 149.447 19.2882 149.745 19.2882C149.979 19.2882 150.214 19.2595 150.449 19.208C150.684 19.1507 150.907 19.0819 151.119 18.996C151.331 18.9101 151.52 18.8242 151.698 18.7382C151.87 18.6523 152.013 18.5778 152.122 18.5148C152.248 18.4346 152.357 18.4002 152.448 18.4002C152.62 18.4002 152.718 18.5034 152.741 18.7039C152.764 18.9101 152.649 19.1392 152.397 19.4085C152.254 19.5517 152.07 19.735 151.836 19.9699C151.601 20.2047 151.32 20.4396 150.988 20.6745C150.661 20.9094 150.289 21.1099 149.882 21.276C149.475 21.4421 149.029 21.5223 148.542 21.5223C148.009 21.5223 147.533 21.4135 147.121 21.1958C146.703 20.9781 146.353 20.6859 146.061 20.325C145.769 19.9641 145.551 19.5402 145.402 19.0476C145.253 18.5549 145.179 18.0393 145.179 17.5066V11.5374H143.323V11.5317Z" fill="#1E2E5C"/>
<path id="Vector_10" d="M154.626 7.34975C154.626 6.85136 154.735 6.45036 154.941 6.15247C155.147 5.85459 155.411 5.62544 155.714 5.47077C156.018 5.3161 156.339 5.20726 156.677 5.1557C157.015 5.09841 157.313 5.0755 157.582 5.0755C157.708 5.0755 157.771 5.13851 157.771 5.26454V9.79586C157.771 9.88752 157.794 9.93907 157.84 9.93907C157.868 9.93907 157.903 9.92189 157.931 9.89324C158.166 9.62973 158.493 9.3834 158.905 9.16572C159.323 8.94803 159.827 8.83919 160.423 8.83919C161.019 8.83919 161.592 8.95948 162.136 9.20009C162.686 9.44069 163.167 9.79013 163.591 10.2312C164.015 10.6781 164.353 11.2051 164.611 11.8181C164.869 12.431 165 13.1127 165 13.8632V21.3332C165 21.4593 164.937 21.5223 164.811 21.5223C164.45 21.5223 164.095 21.5051 163.74 21.4765C163.385 21.4478 163.07 21.3619 162.789 21.2187C162.508 21.0755 162.279 20.8692 162.096 20.5828C161.913 20.3021 161.827 19.9068 161.827 19.4084V14.0751C161.827 13.76 161.798 13.4507 161.735 13.1356C161.672 12.8206 161.569 12.5341 161.431 12.2763C161.288 12.0186 161.099 11.8123 160.859 11.6519C160.612 11.4973 160.314 11.4171 159.953 11.4171C159.673 11.4171 159.398 11.4743 159.134 11.5832C158.865 11.692 158.63 11.8352 158.43 12.0186C158.223 12.1961 158.063 12.4138 157.948 12.6659C157.828 12.9179 157.771 13.1815 157.771 13.4622V19.4027C157.771 19.9183 157.691 20.3193 157.536 20.6C157.381 20.8807 157.169 21.0869 156.9 21.2244C156.631 21.3562 156.322 21.4421 155.961 21.4707C155.6 21.5051 155.216 21.5166 154.809 21.5166C154.683 21.5166 154.62 21.4535 154.62 21.3275V7.34975H154.626Z" fill="#1E2E5C"/>
</g>
<g id="Group 3">
<g id="Group_2">
<g id="KSl4he.tif_1_">
<g id="Group_3">
<path id="Vector_11" d="M14.489 12.5473C13.89 11.8186 13.3435 11.0497 12.8525 10.2438L12.8 10.1574C12.7444 10.0308 12.6858 9.90417 12.6271 9.78066C11.5032 7.47722 11.6545 5.22627 12.9235 3.0278C13.5997 1.85447 14.4828 0.854044 15.5358 0.00183105C15.5543 0.00183105 15.5635 0.00183105 15.5821 0.00491878C16.0483 0.461902 16.5393 0.894184 16.9746 1.37587C17.7713 2.25587 18.3795 3.2563 18.7995 4.36788C18.818 4.41419 18.8365 4.45742 18.8612 4.52226C20.6676 3.69475 22.5572 3.37363 24.555 3.53728C24.7156 5.5196 24.4006 7.40311 23.5731 9.22178C25.4288 9.91035 26.9881 11.0281 28.2881 12.5504C26.9974 14.0603 25.4474 15.1842 23.57 15.8727C24.3975 17.6822 24.7156 19.5718 24.555 21.5634C22.5696 21.7086 20.683 21.4183 18.8674 20.5723C18.1819 22.3848 17.0704 23.8885 15.5358 25.1328C15.2332 24.8549 14.912 24.5925 14.6249 24.2961C13.5689 23.2154 12.7228 21.9988 12.2319 20.5537C11.6545 18.8462 11.7873 17.1819 12.516 15.5485C12.6024 15.354 12.6981 15.1657 12.7877 14.9742L12.8556 14.8631C13.3466 14.0541 13.8931 13.2791 14.489 12.5473ZM26.244 12.5534C25.2281 11.6518 24.1382 10.9478 22.866 10.5649C22.0972 10.3334 21.316 10.284 20.5193 10.4383C19.5498 10.6267 18.6729 11.0312 17.8608 11.5777C17.4254 11.8711 17.0179 12.2014 16.5794 12.5318C17.4594 13.3099 18.3734 13.9244 19.417 14.3412C20.2538 14.6747 21.1153 14.8322 22.0045 14.7118C23.6565 14.4864 24.9935 13.6372 26.244 12.5534ZM15.545 13.6033C14.7515 14.5141 14.1061 15.4713 13.6955 16.5829C13.3404 17.5432 13.2477 18.5189 13.4732 19.5132C13.6739 20.3994 14.066 21.2022 14.5909 21.9401C14.8812 22.3508 15.2054 22.7337 15.5265 23.1443C16.2768 22.3415 16.8697 21.4986 17.2803 20.5352C17.6817 19.6027 17.8577 18.6301 17.6755 17.6204C17.3915 16.0765 16.5918 14.7951 15.545 13.6033ZM15.5419 1.99341C15.0047 2.54921 14.5508 3.14514 14.1833 3.80282C13.748 4.57784 13.4299 5.393 13.362 6.29153C13.2694 7.51118 13.6368 8.61041 14.2173 9.65715C14.5816 10.3148 15.0232 10.9231 15.5419 11.482C16.0854 10.8892 16.5424 10.2562 16.916 9.56452C17.3699 8.72466 17.6941 7.84157 17.7373 6.87202C17.7867 5.74192 17.4316 4.71679 16.8789 3.75342C16.5115 3.11735 16.0699 2.53377 15.5419 1.99341ZM18.605 15.6257C19.0712 16.7126 19.2688 17.7933 19.2071 18.9203C19.204 18.9883 19.2626 19.0902 19.3244 19.1241C20.4916 19.7602 21.7513 20.0319 23.076 20.106C23.0822 20.0628 23.0914 20.0319 23.0883 20.0041C23.0173 18.7104 22.7425 17.4722 22.1126 16.3297C22.0756 16.2618 21.949 16.2 21.8687 16.2062C21.0443 16.268 20.2414 16.1599 19.4572 15.916C19.1885 15.8295 18.923 15.7338 18.605 15.6257ZM23.0945 4.9916C21.7421 5.06879 20.4792 5.33434 19.3151 5.97967C19.2503 6.01672 19.204 6.15258 19.2071 6.23904C19.2379 7.0048 19.17 7.75511 18.9508 8.48999C18.8551 8.81112 18.7408 9.12915 18.6204 9.48115C19.698 9.02108 20.7849 8.82038 21.9212 8.88213C21.9891 8.88522 22.1003 8.80185 22.1311 8.73392C22.3349 8.27385 22.548 7.81378 22.7055 7.33518C22.9525 6.59104 23.0667 5.81602 23.0945 4.9916Z" fill="white"/>
<path id="Vector_12" d="M27.7725 8.11947C28.0905 7.80144 28.424 7.46796 28.7389 7.15302C29.0693 7.48649 29.412 7.83232 29.7393 8.1627C29.4367 8.4653 29.1002 8.80186 28.7729 9.12607C28.4518 8.80495 28.1152 8.4653 27.7725 8.11947Z" fill="white"/>
<path id="Vector_13" d="M30.709 12.5226C31.0332 12.1953 31.3605 11.868 31.6631 11.5623C32.0058 11.902 32.3455 12.2416 32.6759 12.5689C32.3764 12.8684 32.0367 13.2081 31.7156 13.5292C31.3914 13.205 31.0486 12.8653 30.709 12.5226Z" fill="white"/>
<path id="Vector_14" d="M27.7725 16.9473C28.0905 16.6261 28.4271 16.2927 28.7389 15.9777C29.0631 16.305 29.3997 16.6447 29.7208 16.9658C29.4244 17.2622 29.0817 17.6019 28.7544 17.9261C28.4425 17.6142 28.1028 17.2777 27.7725 16.9473Z" fill="white"/>
</g>
</g>
<g id="m4Jpx2.tif_1_">
<g id="Group_4">
<path id="Vector_15" d="M6.71365 8.00215C6.74453 6.58798 5.60516 4.76313 3.37891 4.70137C3.00838 3.67316 3.81119 2.19414 5.00923 1.69702C6.28137 1.1721 8.10313 1.63526 8.7392 3.52495C8.90594 3.48172 9.07268 3.43849 9.25794 3.39218C8.98313 2.41954 8.39338 1.74024 7.51955 1.26473C7.96109 0.585435 8.5632 0.146978 9.34748 0.0234685C9.71801 -0.0351984 10.1071 0.0327316 10.4869 0.0481703C10.6567 0.0543457 10.6999 0.146978 10.6999 0.313715C10.6906 1.12579 10.6968 1.94095 10.6968 2.75302C10.6968 4.47906 10.6968 6.20201 10.6968 7.92805C10.6968 8.02377 10.6968 8.11949 10.6968 8.243C10.0021 7.94966 9.31969 7.84159 8.59408 8.07935C8.64039 8.24609 8.68671 8.40665 8.73611 8.58265C8.91829 8.56412 9.0912 8.53942 9.2672 8.52707C9.71492 8.49619 10.141 8.58265 10.5239 8.81423C10.6042 8.86363 10.6876 8.98714 10.6906 9.07668C10.6999 10.9077 10.6968 12.7418 10.6968 14.5728C10.6968 14.5975 10.6876 14.6222 10.6752 14.6778C9.57289 14.0695 8.41808 13.9429 7.1799 14.261C7.23239 14.4524 7.27871 14.6192 7.32811 14.8013C8.14018 14.5852 8.92755 14.5914 9.70875 14.8631C9.71801 14.8662 9.72727 14.8662 9.73345 14.8693C10.6382 15.1749 10.6968 15.2552 10.6968 16.1939C10.6968 18.1608 10.6968 20.1246 10.6968 22.0915C10.6968 23.7928 9.55127 25.0433 7.85302 25.1329C6.51295 25.2008 5.42916 24.5153 4.96909 23.0579C4.84558 22.6719 4.65414 22.4867 4.24964 22.394C2.6749 22.042 1.78255 20.4056 2.28276 18.8679C2.39083 18.5313 2.29203 18.3152 1.96164 18.1793C0.575249 17.5988 -0.122576 15.9438 0.482618 14.6192C1.12795 15.1811 1.86592 15.5084 2.74283 15.5146C2.74283 15.3293 2.74283 15.1657 2.74283 14.9866C2.52669 14.9465 2.30438 14.9248 2.09441 14.8662C1.03841 14.5821 0.349846 13.9059 0.0904767 12.8468C-0.168892 11.7877 0.133704 10.8707 0.942689 10.1327C1.15574 9.93816 1.19588 9.70349 1.05076 9.45647C0.479531 8.4931 0.525846 7.29507 1.20515 6.40889C1.90915 5.48875 2.85708 5.12131 3.99336 5.35289C5.10186 5.57829 5.93246 6.47373 6.12698 7.57296C6.13007 7.58222 6.13007 7.59149 6.13007 7.60075C6.20109 8.07935 6.20109 8.07935 6.71365 8.00215ZM3.80193 8.86672C3.64754 9.51205 3.76178 10.1049 4.08908 10.6514C4.66031 11.6024 5.5434 12.0162 6.63337 12.0471C6.17021 13.029 5.04319 13.3902 3.82663 12.9518C3.74017 13.1 3.65371 13.2482 3.55491 13.4211C3.6815 13.4798 3.7834 13.5323 3.88838 13.5755C5.13274 14.0634 6.61176 13.4427 7.23239 12.1644C7.31267 12.0008 7.40839 11.9081 7.5813 11.8402C8.38411 11.5253 8.91211 10.9571 9.14061 10.0956C8.94608 10.0524 8.77625 10.0154 8.61261 9.9783C8.14945 11.059 7.31885 11.5932 6.31842 11.4666C5.7719 11.3956 5.28712 11.1887 4.89498 10.7965C4.39477 10.2963 4.22185 9.67879 4.32375 8.98405C4.1354 8.94082 3.97175 8.90377 3.80193 8.86672ZM8.66818 21.8846C8.27913 20.4889 7.4053 19.5811 6.11154 19.0778C6.17021 18.2596 6.41414 17.815 7.26944 16.9627C7.22313 16.8917 7.17681 16.8176 7.12432 16.7435C7.07492 16.6725 7.01934 16.6015 6.96067 16.5243C6.12081 17.1202 5.68235 17.9446 5.53105 18.9265C4.95673 18.8555 4.42256 18.8277 3.87603 18.9883C3.92543 19.1797 3.96866 19.3465 4.01189 19.5163C4.94438 19.3063 5.7966 19.4514 6.58397 19.93C7.37443 20.4086 7.86846 21.1188 8.12474 22.0143C8.31618 21.971 8.47675 21.9309 8.66818 21.8846Z" fill="#1E2E5C"/>
</g>
</g>
</g>
</g>
</g>
</g>
</svg>
